<svg width="1024" height="1024" viewBox="0 0 1024 1024" xmlns="http://www.w3.org/2000/svg">
    <defs>
        <!-- Градиент чуть контрастнее и глубже -->
        <linearGradient id="bg" x1="64" y1="64" x2="960" y2="960" gradientUnits="userSpaceOnUse">
            <stop offset="0" stop-color="#3B82F6"/>
            <stop offset="1" stop-color="#1E40AF"/>
        </linearGradient>
        <!-- Мягкий highlight сверху слева -->
        <radialGradient id="glow" cx="0" cy="0" r="1" gradientUnits="userSpaceOnUse" gradientTransform="translate(256 192) rotate(45) scale(640)">
            <stop offset="0" stop-color="white" stop-opacity=".35"/>
            <stop offset=".5" stop-color="white" stop-opacity=".12"/>
            <stop offset="1" stop-color="white" stop-opacity="0"/>
        </radialGradient>
    </defs>

    <!-- Фон с радиусом -->
    <rect x="0" y="0" width="1024" height="1024" rx="180" fill="url(#bg)"/>
    <rect x="0" y="0" width="1024" height="1024" rx="180" fill="url(#glow)"/>

    <!-- Знак: масштабирован и центрирован в безопасной зоне (~78% площади) -->
    <g transform="translate(512,512) scale(1.24) translate(-335.5,-335.5)">
        <!-- это твой исходный путь, адаптирован по размеру 671->~ 671, центр в 1024 -->
        <path fill="#FFFFFF" d="M304 79C321.7 79 336 93.3 336 111V223H272V111C272 93.3 286.3 79 304 79ZM176 143C176 125.3 190.3 111 208 111C225.7 111 240 125.3 240 143V223H176V143ZM368 143C368 125.3 382.3 111 400 111C417.7 111 432 125.3 432 143V239C432 256.7 417.7 271 400 271C382.3 271 368 256.7 368 239V143ZM464 207C464 189.3 478.3 175 496 175C513.7 175 528 189.3 528 207V271C528 288.7 513.7 303 496 303C478.3 303 464 288.7 464 271V207ZM368 295V294.4C377.4 299.8 388.3 303 400 303C413.2 303 425.4 299 435.6 292.2C444.3 317.1 468.1 335 496 335C507.7 335 518.6 331.9 528 326.4V335C528 387.3 502.9 433.8 464 463V559C464 576.7 449.7 591 432 591H272C254.3 591 240 576.7 240 559V480.6C222.7 472.7 206.8 461.8 193.1 448.1L181.5 436.5C157.5 412.5 144 379.9 144 346V319C144 283.7 172.7 255 208 255H296C318.1 255 336 272.9 336 295C336 317.1 318.1 335 296 335H240C231.2 335 224 342.2 224 351C224 359.8 231.2 367 240 367H296C335.8 367 368 334.8 368 295Z"/>
    </g>
</svg>